<svg id="Layer_1" data-name="Layer 1" xmlns="http://www.w3.org/2000/svg" viewBox="0 0 102 42">
    <defs>
        <style>.cls-1 {
            fill: #59595c;
        }</style>
    </defs>
    <g id="Rocket_Group" data-name="Rocket Group">
        <path id="Window" class="cls-1"
              d="M62.78,13.73a.53.53,0,0,1,.13-.35.55.55,0,0,1,.47-.17,23.85,23.85,0,0,1,4.37,1,1.53,1.53,0,0,1,1,1.11,27.21,27.21,0,0,1,.51,5.48,27.21,27.21,0,0,1-.51,5.48,1.53,1.53,0,0,1-1,1.11,24.15,24.15,0,0,1-4.3,1h-.14a.52.52,0,0,1-.53-.53.57.57,0,0,1,0-.13,28,28,0,0,0,0-13.84A.53.53,0,0,1,62.78,13.73Zm5.4,7.05a25.86,25.86,0,0,0-.49-5.27.49.49,0,0,0-.28-.31A22.63,22.63,0,0,0,64,14.37a28.89,28.89,0,0,1,0,12.82,22.63,22.63,0,0,0,3.41-.83.49.49,0,0,0,.28-.31A25.86,25.86,0,0,0,68.18,20.78Z"/>
        <path id="Line" class="cls-1"
              d="M65.29,21.86a.2.2,0,0,1,0-.11.19.19,0,0,1,.27-.05l1.75,1.17a.18.18,0,0,1,.06.26.2.2,0,0,1-.27.06L65.38,22A.19.19,0,0,1,65.29,21.86Z"/>
        <path id="Line-2" data-name="Line" class="cls-1"
              d="M65.29,20.2a.2.2,0,0,1,0-.11.19.19,0,0,1,.27-.05l1.75,1.16a.2.2,0,1,1-.21.33l-1.75-1.17A.19.19,0,0,1,65.29,20.2Z"/>
        <path id="Line-3" data-name="Line" class="cls-1"
              d="M65.29,18.54a.2.2,0,0,1,0-.11.2.2,0,0,1,.27-.06l1.75,1.17a.2.2,0,1,1-.21.33L65.38,18.7A.19.19,0,0,1,65.29,18.54Z"/>
        <g id="Speed_Lines_Group" data-name="Speed Lines Group">
            <path id="Line-4" data-name="Line" class="cls-1"
                  d="M11.2,9.33a.19.19,0,0,1,.19-.19H24.74a.19.19,0,0,1,.19.19.2.2,0,0,1-.19.19H11.39A.2.2,0,0,1,11.2,9.33Z"/>
            <path id="Line-5" data-name="Line" class="cls-1"
                  d="M26.65,9.33a.18.18,0,0,1,.19-.19h3.59a.18.18,0,0,1,.19.19.19.19,0,0,1-.19.19H26.84A.19.19,0,0,1,26.65,9.33Z"/>
            <path id="Line-6" data-name="Line" class="cls-1"
                  d="M7.29,12.67a.19.19,0,0,1,.19-.19h8.74a.19.19,0,0,1,.19.19.18.18,0,0,1-.19.19H7.48A.18.18,0,0,1,7.29,12.67Z"/>
            <path id="Line-7" data-name="Line" class="cls-1"
                  d="M18.13,12.67a.19.19,0,0,1,.19-.19H36.6a.2.2,0,0,1,.19.19.19.19,0,0,1-.19.19H18.32A.18.18,0,0,1,18.13,12.67Z"/>
            <path id="Line-8" data-name="Line" class="cls-1"
                  d="M7.29,28.89a.18.18,0,0,1,.19-.19H23.63a.19.19,0,0,1,.19.19.2.2,0,0,1-.19.19H7.48A.19.19,0,0,1,7.29,28.89Z"/>
            <path id="Line-9" data-name="Line" class="cls-1"
                  d="M25.28,28.89a.18.18,0,0,1,.19-.19H36.66a.18.18,0,0,1,.19.19.19.19,0,0,1-.19.19H25.47A.19.19,0,0,1,25.28,28.89Z"/>
            <path id="Line-10" data-name="Line" class="cls-1"
                  d="M19,32.24a.18.18,0,0,1,.19-.19h3.1a.18.18,0,0,1,.19.19.19.19,0,0,1-.19.19h-3.1A.19.19,0,0,1,19,32.24Z"/>
            <path id="Line-11" data-name="Line" class="cls-1"
                  d="M11.2,32.24a.19.19,0,0,1,.19-.19h6a.19.19,0,0,1,.19.19.2.2,0,0,1-.19.19h-6A.2.2,0,0,1,11.2,32.24Z"/>
            <path id="Line-12" data-name="Line" class="cls-1"
                  d="M24,32.24a.19.19,0,0,1,.19-.19h6.38a.18.18,0,0,1,.19.19.19.19,0,0,1-.19.19H24.2A.2.2,0,0,1,24,32.24Z"/>
        </g>
        <path id="Rocket" class="cls-1"
              d="M59.32,33.21a24.08,24.08,0,0,0,15.76-6.05.43.43,0,0,0,.12-.11,24.71,24.71,0,0,0,4.92-6,.49.49,0,0,0,0-.52,24.85,24.85,0,0,0-4.91-6,.46.46,0,0,0-.16-.15,24.13,24.13,0,0,0-15.73-6C54.41,3.38,49.08,2.17,43,4.64c-3,1.22-7.74,3.47-7.79,3.49a.54.54,0,0,0-.31.48s0,.05,0,.08a.53.53,0,0,0,.44.45c.21,0,5.3,1,5.3,6.14v.26c-1,.16-2.44.53-2.94,1.31a7.1,7.1,0,0,0-5.27-.7,10.63,10.63,0,0,0-5.59,4.36h0l0,.05,0,.08s0,0,0,0,0,.06,0,.09h0s0,.06,0,.09a.11.11,0,0,0,0,.05l0,.08s0,0,0,0h0a10.58,10.58,0,0,0,5.59,4.36,7.1,7.1,0,0,0,5.27-.7c.51.81,2,1.17,2.94,1.32v.25h0c0,5.15-5.09,6.1-5.3,6.13a.54.54,0,0,0-.44.46s0,0,0,.07a.54.54,0,0,0,.31.48S40,35.7,43,36.93C49.08,39.4,54.41,38.18,59.32,33.21ZM41.72,26V15.55A34.21,34.21,0,0,1,54.43,9.83a56.49,56.49,0,0,1,1.26,11,51.73,51.73,0,0,1-1.24,11A34.12,34.12,0,0,1,41.72,26Zm37.33-5.23a24,24,0,0,1-3.57,4.55c.21-2.09.26-3.6.26-4.55,0-1.32-.09-2.85-.26-4.55A24,24,0,0,1,79.05,20.78Zm-4.77-5.66a48.33,48.33,0,0,1,.39,5.66,48.84,48.84,0,0,1-.39,5.66,23.09,23.09,0,0,1-15.6,5.72,21.5,21.5,0,0,1-3.18-.25,52.82,52.82,0,0,0,1.25-11.13A57.12,57.12,0,0,0,55.48,9.65a21.88,21.88,0,0,1,3.2-.25A23.09,23.09,0,0,1,74.28,15.12ZM36.92,8.51c1.61-.75,4.45-2.06,6.49-2.89,5.31-2.16,10-1.27,14.39,2.74-5.14.21-10.56,2.21-16.14,6A7.08,7.08,0,0,0,36.92,8.51ZM32.76,24.39A9.7,9.7,0,0,1,28,20.78a9.71,9.71,0,0,1,4.81-3.61,6.06,6.06,0,0,1,4.78.82v.89a4.84,4.84,0,0,0-1.74-.32,6.17,6.17,0,0,0-3.88,1.85l0,0s0,0,0,0,0,0,0,.05l0,0a.19.19,0,0,0,0,.07,0,0,0,0,0,0,0,.34.34,0,0,0,0,.1h0a.31.31,0,0,0,0,.1,0,0,0,0,0,0,0,.14.14,0,0,0,0,.07l0,0s0,0,0,.05a.05.05,0,0,0,0,0s0,0,0,0A6.17,6.17,0,0,0,35.8,23a4.84,4.84,0,0,0,1.74-.32v.89A6.06,6.06,0,0,1,32.76,24.39Zm4.78-2.88a3.62,3.62,0,0,1-1.74.43,4.63,4.63,0,0,1-2.71-1.16,4.63,4.63,0,0,1,2.71-1.16,3.65,3.65,0,0,1,1.74.43Zm1.06,2.61V21.81h0V19.75h0V17.44c.06-.23.93-.6,2.06-.82V25C39.48,24.73,38.6,24.33,38.6,24.12Zm4.81,11.82c-2-.83-4.88-2.14-6.49-2.89a7.08,7.08,0,0,0,4.74-5.8c5.58,3.74,11,5.74,16.14,6C53.44,37.21,48.72,38.1,43.41,35.94Z"/>
        <path id="Dot_2" data-name="Dot 2" class="cls-1"
              d="M52.33,21.69a.91.91,0,1,1,.91-.91A.91.91,0,0,1,52.33,21.69Z"/>
        <path id="Dot_3" data-name="Dot 3" class="cls-1" d="M52,25.45a.91.91,0,1,1,.91-.91A.91.91,0,0,1,52,25.45Z"/>
        <path id="Dot_1" data-name="Dot 1" class="cls-1" d="M52,17.93a.91.91,0,1,1,.91-.91A.91.91,0,0,1,52,17.93Z"/>
    </g>
    <path id="Star" class="cls-1"
          d="M89.21,19.7a1.13,1.13,0,0,0,.73.73l1.54.42c.32.08.32.22,0,.3l-1.54.42a1.13,1.13,0,0,0-.73.73l-.42,1.54c-.08.32-.22.32-.31,0l-.41-1.54a1.15,1.15,0,0,0-.73-.73l-1.54-.42c-.32-.08-.32-.22,0-.3l1.54-.42a1.15,1.15,0,0,0,.73-.73l.41-1.54c.09-.32.23-.32.31,0Z"/>
</svg>
